<svg width="64" height="96" viewBox="0 0 64 96" fill="none" xmlns="http://www.w3.org/2000/svg">
<path d="M31.0119 32.6306V22.3842H39.829L41.5012 27.1133L24.019 42.5616L22.8029 67.9409L46.9739 69.3596V49.9705L64 32.6306L60.1995 7.40887L18.5463 0L0 11.9803L10.3373 32.6306H31.0119Z" fill="#2E60AB"/>
<path d="M28.1235 29.1625L27.3634 18.9162L42.7173 18.128L46.6698 28.3743L28.1235 43.665L27.3634 64.3152L42.7173 65.1034V47.9211L60.0474 32.3152L57.0071 10.2463L18.8503 3.7832L3.80042 13.399L12.9216 29.1625H28.1235Z" fill="#FFCF00"/>
<path d="M48.038 70.9359L19.9144 74.0886L30.4037 96L56.095 89.6945L48.038 70.9359Z" fill="#2E60AB"/>
<path d="M32.1449 90.9212L25 76.734L45.8266 75L50.6912 86.9803L32.1449 90.9212Z" fill="#FFCF00"/>
</svg>
