<svg width="360" height="540" viewBox="0 0 360 540" fill="none" xmlns="http://www.w3.org/2000/svg">
<path d="M174.442 183.547V125.911H224.038L233.444 152.512L135.107 239.409L128.266 382.168L264.228 390.148V281.084L360 183.547L338.622 41.6749L104.323 0L0 67.3892L58.1473 183.547H174.442Z" fill="#2E60AB"/>
<path d="M158.194 164.039L153.919 106.404L240.285 101.97L262.518 159.606L158.194 245.616L153.919 361.773L240.285 366.207V269.556L337.767 181.773L320.665 57.6352L106.033 21.2805L21.3773 75.3692L72.6837 164.039H158.194Z" fill="#FFCF00"/>
<path d="M270.213 399.014L112.019 416.748L171.021 540L315.534 504.532L270.213 399.014Z" fill="#2E60AB"/>
<path d="M180.815 511.432L140.625 431.629L257.775 421.875L285.138 489.264L180.815 511.432Z" fill="#FFCF00"/>
</svg>
